G04 #@! TF.GenerationSoftware,KiCad,Pcbnew,(5.1.2)-2*
G04 #@! TF.CreationDate,2019-09-26T21:19:41+02:00*
G04 #@! TF.ProjectId,enkoder,656e6b6f-6465-4722-9e6b-696361645f70,rev?*
G04 #@! TF.SameCoordinates,Original*
G04 #@! TF.FileFunction,Copper,L2,Bot*
G04 #@! TF.FilePolarity,Positive*
%FSLAX46Y46*%
G04 Gerber Fmt 4.6, Leading zero omitted, Abs format (unit mm)*
G04 Created by KiCad (PCBNEW (5.1.2)-2) date 2019-09-26 21:19:41*
%MOMM*%
%LPD*%
G04 APERTURE LIST*
%ADD10C,5.700000*%
%ADD11C,0.100000*%
%ADD12C,1.200000*%
%ADD13O,1.750000X1.200000*%
G04 APERTURE END LIST*
D10*
X140250000Y-114250000D03*
X171250000Y-114250000D03*
X171250000Y-83500000D03*
X140250000Y-83500000D03*
D11*
G36*
X174428505Y-100540204D02*
G01*
X174452773Y-100543804D01*
X174476572Y-100549765D01*
X174499671Y-100558030D01*
X174521850Y-100568520D01*
X174542893Y-100581132D01*
X174562599Y-100595747D01*
X174580777Y-100612223D01*
X174597253Y-100630401D01*
X174611868Y-100650107D01*
X174624480Y-100671150D01*
X174634970Y-100693329D01*
X174643235Y-100716428D01*
X174649196Y-100740227D01*
X174652796Y-100764495D01*
X174654000Y-100788999D01*
X174654000Y-101489001D01*
X174652796Y-101513505D01*
X174649196Y-101537773D01*
X174643235Y-101561572D01*
X174634970Y-101584671D01*
X174624480Y-101606850D01*
X174611868Y-101627893D01*
X174597253Y-101647599D01*
X174580777Y-101665777D01*
X174562599Y-101682253D01*
X174542893Y-101696868D01*
X174521850Y-101709480D01*
X174499671Y-101719970D01*
X174476572Y-101728235D01*
X174452773Y-101734196D01*
X174428505Y-101737796D01*
X174404001Y-101739000D01*
X173153999Y-101739000D01*
X173129495Y-101737796D01*
X173105227Y-101734196D01*
X173081428Y-101728235D01*
X173058329Y-101719970D01*
X173036150Y-101709480D01*
X173015107Y-101696868D01*
X172995401Y-101682253D01*
X172977223Y-101665777D01*
X172960747Y-101647599D01*
X172946132Y-101627893D01*
X172933520Y-101606850D01*
X172923030Y-101584671D01*
X172914765Y-101561572D01*
X172908804Y-101537773D01*
X172905204Y-101513505D01*
X172904000Y-101489001D01*
X172904000Y-100788999D01*
X172905204Y-100764495D01*
X172908804Y-100740227D01*
X172914765Y-100716428D01*
X172923030Y-100693329D01*
X172933520Y-100671150D01*
X172946132Y-100650107D01*
X172960747Y-100630401D01*
X172977223Y-100612223D01*
X172995401Y-100595747D01*
X173015107Y-100581132D01*
X173036150Y-100568520D01*
X173058329Y-100558030D01*
X173081428Y-100549765D01*
X173105227Y-100543804D01*
X173129495Y-100540204D01*
X173153999Y-100539000D01*
X174404001Y-100539000D01*
X174428505Y-100540204D01*
X174428505Y-100540204D01*
G37*
D12*
X173779000Y-101139000D03*
D13*
X173779000Y-99139000D03*
X173779000Y-97139000D03*
X173779000Y-95139000D03*
D11*
G36*
X168797505Y-100493204D02*
G01*
X168821773Y-100496804D01*
X168845572Y-100502765D01*
X168868671Y-100511030D01*
X168890850Y-100521520D01*
X168911893Y-100534132D01*
X168931599Y-100548747D01*
X168949777Y-100565223D01*
X168966253Y-100583401D01*
X168980868Y-100603107D01*
X168993480Y-100624150D01*
X169003970Y-100646329D01*
X169012235Y-100669428D01*
X169018196Y-100693227D01*
X169021796Y-100717495D01*
X169023000Y-100741999D01*
X169023000Y-101442001D01*
X169021796Y-101466505D01*
X169018196Y-101490773D01*
X169012235Y-101514572D01*
X169003970Y-101537671D01*
X168993480Y-101559850D01*
X168980868Y-101580893D01*
X168966253Y-101600599D01*
X168949777Y-101618777D01*
X168931599Y-101635253D01*
X168911893Y-101649868D01*
X168890850Y-101662480D01*
X168868671Y-101672970D01*
X168845572Y-101681235D01*
X168821773Y-101687196D01*
X168797505Y-101690796D01*
X168773001Y-101692000D01*
X167522999Y-101692000D01*
X167498495Y-101690796D01*
X167474227Y-101687196D01*
X167450428Y-101681235D01*
X167427329Y-101672970D01*
X167405150Y-101662480D01*
X167384107Y-101649868D01*
X167364401Y-101635253D01*
X167346223Y-101618777D01*
X167329747Y-101600599D01*
X167315132Y-101580893D01*
X167302520Y-101559850D01*
X167292030Y-101537671D01*
X167283765Y-101514572D01*
X167277804Y-101490773D01*
X167274204Y-101466505D01*
X167273000Y-101442001D01*
X167273000Y-100741999D01*
X167274204Y-100717495D01*
X167277804Y-100693227D01*
X167283765Y-100669428D01*
X167292030Y-100646329D01*
X167302520Y-100624150D01*
X167315132Y-100603107D01*
X167329747Y-100583401D01*
X167346223Y-100565223D01*
X167364401Y-100548747D01*
X167384107Y-100534132D01*
X167405150Y-100521520D01*
X167427329Y-100511030D01*
X167450428Y-100502765D01*
X167474227Y-100496804D01*
X167498495Y-100493204D01*
X167522999Y-100492000D01*
X168773001Y-100492000D01*
X168797505Y-100493204D01*
X168797505Y-100493204D01*
G37*
D12*
X168148000Y-101092000D03*
D13*
X168148000Y-99092000D03*
X168148000Y-97092000D03*
X168148000Y-95092000D03*
M02*
