G04 #@! TF.GenerationSoftware,KiCad,Pcbnew,(5.1.2)-2*
G04 #@! TF.CreationDate,2019-09-26T21:19:41+02:00*
G04 #@! TF.ProjectId,enkoder,656e6b6f-6465-4722-9e6b-696361645f70,rev?*
G04 #@! TF.SameCoordinates,Original*
G04 #@! TF.FileFunction,Soldermask,Bot*
G04 #@! TF.FilePolarity,Negative*
%FSLAX46Y46*%
G04 Gerber Fmt 4.6, Leading zero omitted, Abs format (unit mm)*
G04 Created by KiCad (PCBNEW (5.1.2)-2) date 2019-09-26 21:19:41*
%MOMM*%
%LPD*%
G04 APERTURE LIST*
%ADD10C,0.100000*%
G04 APERTURE END LIST*
D10*
G36*
X141096189Y-111460483D02*
G01*
X141096192Y-111460484D01*
X141096191Y-111460484D01*
X141624139Y-111679167D01*
X142099280Y-111996646D01*
X142503354Y-112400720D01*
X142820833Y-112875861D01*
X142820834Y-112875863D01*
X143039517Y-113403811D01*
X143151000Y-113964275D01*
X143151000Y-114535725D01*
X143039517Y-115096189D01*
X143039516Y-115096191D01*
X142820833Y-115624139D01*
X142503354Y-116099280D01*
X142099280Y-116503354D01*
X141624139Y-116820833D01*
X141624138Y-116820834D01*
X141624137Y-116820834D01*
X141096189Y-117039517D01*
X140535725Y-117151000D01*
X139964275Y-117151000D01*
X139403811Y-117039517D01*
X138875863Y-116820834D01*
X138875862Y-116820834D01*
X138875861Y-116820833D01*
X138400720Y-116503354D01*
X137996646Y-116099280D01*
X137679167Y-115624139D01*
X137460484Y-115096191D01*
X137460483Y-115096189D01*
X137349000Y-114535725D01*
X137349000Y-113964275D01*
X137460483Y-113403811D01*
X137679166Y-112875863D01*
X137679167Y-112875861D01*
X137996646Y-112400720D01*
X138400720Y-111996646D01*
X138875861Y-111679167D01*
X139403809Y-111460484D01*
X139403808Y-111460484D01*
X139403811Y-111460483D01*
X139964275Y-111349000D01*
X140535725Y-111349000D01*
X141096189Y-111460483D01*
X141096189Y-111460483D01*
G37*
G36*
X172096189Y-111460483D02*
G01*
X172096192Y-111460484D01*
X172096191Y-111460484D01*
X172624139Y-111679167D01*
X173099280Y-111996646D01*
X173503354Y-112400720D01*
X173820833Y-112875861D01*
X173820834Y-112875863D01*
X174039517Y-113403811D01*
X174151000Y-113964275D01*
X174151000Y-114535725D01*
X174039517Y-115096189D01*
X174039516Y-115096191D01*
X173820833Y-115624139D01*
X173503354Y-116099280D01*
X173099280Y-116503354D01*
X172624139Y-116820833D01*
X172624138Y-116820834D01*
X172624137Y-116820834D01*
X172096189Y-117039517D01*
X171535725Y-117151000D01*
X170964275Y-117151000D01*
X170403811Y-117039517D01*
X169875863Y-116820834D01*
X169875862Y-116820834D01*
X169875861Y-116820833D01*
X169400720Y-116503354D01*
X168996646Y-116099280D01*
X168679167Y-115624139D01*
X168460484Y-115096191D01*
X168460483Y-115096189D01*
X168349000Y-114535725D01*
X168349000Y-113964275D01*
X168460483Y-113403811D01*
X168679166Y-112875863D01*
X168679167Y-112875861D01*
X168996646Y-112400720D01*
X169400720Y-111996646D01*
X169875861Y-111679167D01*
X170403809Y-111460484D01*
X170403808Y-111460484D01*
X170403811Y-111460483D01*
X170964275Y-111349000D01*
X171535725Y-111349000D01*
X172096189Y-111460483D01*
X172096189Y-111460483D01*
G37*
G36*
X174545242Y-100492404D02*
G01*
X174582337Y-100503657D01*
X174616515Y-100521925D01*
X174646481Y-100546519D01*
X174671075Y-100576485D01*
X174689343Y-100610663D01*
X174700596Y-100647758D01*
X174705000Y-100692474D01*
X174705000Y-101585526D01*
X174700596Y-101630242D01*
X174689343Y-101667337D01*
X174671075Y-101701515D01*
X174646481Y-101731481D01*
X174616515Y-101756075D01*
X174582337Y-101774343D01*
X174545242Y-101785596D01*
X174500526Y-101790000D01*
X173057474Y-101790000D01*
X173012758Y-101785596D01*
X172975663Y-101774343D01*
X172941485Y-101756075D01*
X172911519Y-101731481D01*
X172886925Y-101701515D01*
X172868657Y-101667337D01*
X172857404Y-101630242D01*
X172853000Y-101585526D01*
X172853000Y-100692474D01*
X172857404Y-100647758D01*
X172868657Y-100610663D01*
X172886925Y-100576485D01*
X172911519Y-100546519D01*
X172941485Y-100521925D01*
X172975663Y-100503657D01*
X173012758Y-100492404D01*
X173057474Y-100488000D01*
X174500526Y-100488000D01*
X174545242Y-100492404D01*
X174545242Y-100492404D01*
G37*
G36*
X168914242Y-100445404D02*
G01*
X168951337Y-100456657D01*
X168985515Y-100474925D01*
X169015481Y-100499519D01*
X169040075Y-100529485D01*
X169058343Y-100563663D01*
X169069596Y-100600758D01*
X169074000Y-100645474D01*
X169074000Y-101538526D01*
X169069596Y-101583242D01*
X169058343Y-101620337D01*
X169040075Y-101654515D01*
X169015481Y-101684481D01*
X168985515Y-101709075D01*
X168951337Y-101727343D01*
X168914242Y-101738596D01*
X168869526Y-101743000D01*
X167426474Y-101743000D01*
X167381758Y-101738596D01*
X167344663Y-101727343D01*
X167310485Y-101709075D01*
X167280519Y-101684481D01*
X167255925Y-101654515D01*
X167237657Y-101620337D01*
X167226404Y-101583242D01*
X167222000Y-101538526D01*
X167222000Y-100645474D01*
X167226404Y-100600758D01*
X167237657Y-100563663D01*
X167255925Y-100529485D01*
X167280519Y-100499519D01*
X167310485Y-100474925D01*
X167344663Y-100456657D01*
X167381758Y-100445404D01*
X167426474Y-100441000D01*
X168869526Y-100441000D01*
X168914242Y-100445404D01*
X168914242Y-100445404D01*
G37*
G36*
X174117855Y-98491140D02*
G01*
X174181618Y-98497420D01*
X174272404Y-98524960D01*
X174304336Y-98534646D01*
X174417425Y-98595094D01*
X174516554Y-98676446D01*
X174597906Y-98775575D01*
X174658354Y-98888664D01*
X174658355Y-98888668D01*
X174695580Y-99011382D01*
X174708149Y-99139000D01*
X174695580Y-99266618D01*
X174672612Y-99342332D01*
X174658354Y-99389336D01*
X174597906Y-99502425D01*
X174516554Y-99601554D01*
X174417425Y-99682906D01*
X174304336Y-99743354D01*
X174272404Y-99753040D01*
X174181618Y-99780580D01*
X174117855Y-99786860D01*
X174085974Y-99790000D01*
X173472026Y-99790000D01*
X173440145Y-99786860D01*
X173376382Y-99780580D01*
X173285596Y-99753040D01*
X173253664Y-99743354D01*
X173140575Y-99682906D01*
X173041446Y-99601554D01*
X172960094Y-99502425D01*
X172899646Y-99389336D01*
X172885388Y-99342332D01*
X172862420Y-99266618D01*
X172849851Y-99139000D01*
X172862420Y-99011382D01*
X172899645Y-98888668D01*
X172899646Y-98888664D01*
X172960094Y-98775575D01*
X173041446Y-98676446D01*
X173140575Y-98595094D01*
X173253664Y-98534646D01*
X173285596Y-98524960D01*
X173376382Y-98497420D01*
X173440145Y-98491140D01*
X173472026Y-98488000D01*
X174085974Y-98488000D01*
X174117855Y-98491140D01*
X174117855Y-98491140D01*
G37*
G36*
X168486855Y-98444140D02*
G01*
X168550618Y-98450420D01*
X168641404Y-98477960D01*
X168673336Y-98487646D01*
X168786425Y-98548094D01*
X168885554Y-98629446D01*
X168966906Y-98728575D01*
X169027354Y-98841664D01*
X169027355Y-98841668D01*
X169064580Y-98964382D01*
X169077149Y-99092000D01*
X169064580Y-99219618D01*
X169037040Y-99310404D01*
X169027354Y-99342336D01*
X168966906Y-99455425D01*
X168885554Y-99554554D01*
X168786425Y-99635906D01*
X168673336Y-99696354D01*
X168641404Y-99706040D01*
X168550618Y-99733580D01*
X168486855Y-99739860D01*
X168454974Y-99743000D01*
X167841026Y-99743000D01*
X167809145Y-99739860D01*
X167745382Y-99733580D01*
X167654596Y-99706040D01*
X167622664Y-99696354D01*
X167509575Y-99635906D01*
X167410446Y-99554554D01*
X167329094Y-99455425D01*
X167268646Y-99342336D01*
X167258960Y-99310404D01*
X167231420Y-99219618D01*
X167218851Y-99092000D01*
X167231420Y-98964382D01*
X167268645Y-98841668D01*
X167268646Y-98841664D01*
X167329094Y-98728575D01*
X167410446Y-98629446D01*
X167509575Y-98548094D01*
X167622664Y-98487646D01*
X167654596Y-98477960D01*
X167745382Y-98450420D01*
X167809145Y-98444140D01*
X167841026Y-98441000D01*
X168454974Y-98441000D01*
X168486855Y-98444140D01*
X168486855Y-98444140D01*
G37*
G36*
X174117855Y-96491140D02*
G01*
X174181618Y-96497420D01*
X174272404Y-96524960D01*
X174304336Y-96534646D01*
X174417425Y-96595094D01*
X174516554Y-96676446D01*
X174597906Y-96775575D01*
X174658354Y-96888664D01*
X174658355Y-96888668D01*
X174695580Y-97011382D01*
X174708149Y-97139000D01*
X174695580Y-97266618D01*
X174672612Y-97342332D01*
X174658354Y-97389336D01*
X174597906Y-97502425D01*
X174516554Y-97601554D01*
X174417425Y-97682906D01*
X174304336Y-97743354D01*
X174272404Y-97753040D01*
X174181618Y-97780580D01*
X174117855Y-97786860D01*
X174085974Y-97790000D01*
X173472026Y-97790000D01*
X173440145Y-97786860D01*
X173376382Y-97780580D01*
X173285596Y-97753040D01*
X173253664Y-97743354D01*
X173140575Y-97682906D01*
X173041446Y-97601554D01*
X172960094Y-97502425D01*
X172899646Y-97389336D01*
X172885388Y-97342332D01*
X172862420Y-97266618D01*
X172849851Y-97139000D01*
X172862420Y-97011382D01*
X172899645Y-96888668D01*
X172899646Y-96888664D01*
X172960094Y-96775575D01*
X173041446Y-96676446D01*
X173140575Y-96595094D01*
X173253664Y-96534646D01*
X173285596Y-96524960D01*
X173376382Y-96497420D01*
X173440145Y-96491140D01*
X173472026Y-96488000D01*
X174085974Y-96488000D01*
X174117855Y-96491140D01*
X174117855Y-96491140D01*
G37*
G36*
X168486855Y-96444140D02*
G01*
X168550618Y-96450420D01*
X168641404Y-96477960D01*
X168673336Y-96487646D01*
X168786425Y-96548094D01*
X168885554Y-96629446D01*
X168966906Y-96728575D01*
X169027354Y-96841664D01*
X169027355Y-96841668D01*
X169064580Y-96964382D01*
X169077149Y-97092000D01*
X169064580Y-97219618D01*
X169037040Y-97310404D01*
X169027354Y-97342336D01*
X168966906Y-97455425D01*
X168885554Y-97554554D01*
X168786425Y-97635906D01*
X168673336Y-97696354D01*
X168641404Y-97706040D01*
X168550618Y-97733580D01*
X168486855Y-97739860D01*
X168454974Y-97743000D01*
X167841026Y-97743000D01*
X167809145Y-97739860D01*
X167745382Y-97733580D01*
X167654596Y-97706040D01*
X167622664Y-97696354D01*
X167509575Y-97635906D01*
X167410446Y-97554554D01*
X167329094Y-97455425D01*
X167268646Y-97342336D01*
X167258960Y-97310404D01*
X167231420Y-97219618D01*
X167218851Y-97092000D01*
X167231420Y-96964382D01*
X167268645Y-96841668D01*
X167268646Y-96841664D01*
X167329094Y-96728575D01*
X167410446Y-96629446D01*
X167509575Y-96548094D01*
X167622664Y-96487646D01*
X167654596Y-96477960D01*
X167745382Y-96450420D01*
X167809145Y-96444140D01*
X167841026Y-96441000D01*
X168454974Y-96441000D01*
X168486855Y-96444140D01*
X168486855Y-96444140D01*
G37*
G36*
X174117855Y-94491140D02*
G01*
X174181618Y-94497420D01*
X174272404Y-94524960D01*
X174304336Y-94534646D01*
X174417425Y-94595094D01*
X174516554Y-94676446D01*
X174597906Y-94775575D01*
X174658354Y-94888664D01*
X174658355Y-94888668D01*
X174695580Y-95011382D01*
X174708149Y-95139000D01*
X174695580Y-95266618D01*
X174672612Y-95342332D01*
X174658354Y-95389336D01*
X174597906Y-95502425D01*
X174516554Y-95601554D01*
X174417425Y-95682906D01*
X174304336Y-95743354D01*
X174272404Y-95753040D01*
X174181618Y-95780580D01*
X174117855Y-95786860D01*
X174085974Y-95790000D01*
X173472026Y-95790000D01*
X173440145Y-95786860D01*
X173376382Y-95780580D01*
X173285596Y-95753040D01*
X173253664Y-95743354D01*
X173140575Y-95682906D01*
X173041446Y-95601554D01*
X172960094Y-95502425D01*
X172899646Y-95389336D01*
X172885388Y-95342332D01*
X172862420Y-95266618D01*
X172849851Y-95139000D01*
X172862420Y-95011382D01*
X172899645Y-94888668D01*
X172899646Y-94888664D01*
X172960094Y-94775575D01*
X173041446Y-94676446D01*
X173140575Y-94595094D01*
X173253664Y-94534646D01*
X173285596Y-94524960D01*
X173376382Y-94497420D01*
X173440145Y-94491140D01*
X173472026Y-94488000D01*
X174085974Y-94488000D01*
X174117855Y-94491140D01*
X174117855Y-94491140D01*
G37*
G36*
X168486855Y-94444140D02*
G01*
X168550618Y-94450420D01*
X168641404Y-94477960D01*
X168673336Y-94487646D01*
X168786425Y-94548094D01*
X168885554Y-94629446D01*
X168966906Y-94728575D01*
X169027354Y-94841664D01*
X169027355Y-94841668D01*
X169064580Y-94964382D01*
X169077149Y-95092000D01*
X169064580Y-95219618D01*
X169037040Y-95310404D01*
X169027354Y-95342336D01*
X168966906Y-95455425D01*
X168885554Y-95554554D01*
X168786425Y-95635906D01*
X168673336Y-95696354D01*
X168641404Y-95706040D01*
X168550618Y-95733580D01*
X168486855Y-95739860D01*
X168454974Y-95743000D01*
X167841026Y-95743000D01*
X167809145Y-95739860D01*
X167745382Y-95733580D01*
X167654596Y-95706040D01*
X167622664Y-95696354D01*
X167509575Y-95635906D01*
X167410446Y-95554554D01*
X167329094Y-95455425D01*
X167268646Y-95342336D01*
X167258960Y-95310404D01*
X167231420Y-95219618D01*
X167218851Y-95092000D01*
X167231420Y-94964382D01*
X167268645Y-94841668D01*
X167268646Y-94841664D01*
X167329094Y-94728575D01*
X167410446Y-94629446D01*
X167509575Y-94548094D01*
X167622664Y-94487646D01*
X167654596Y-94477960D01*
X167745382Y-94450420D01*
X167809145Y-94444140D01*
X167841026Y-94441000D01*
X168454974Y-94441000D01*
X168486855Y-94444140D01*
X168486855Y-94444140D01*
G37*
G36*
X172096189Y-80710483D02*
G01*
X172096192Y-80710484D01*
X172096191Y-80710484D01*
X172624139Y-80929167D01*
X173099280Y-81246646D01*
X173503354Y-81650720D01*
X173820833Y-82125861D01*
X173820834Y-82125863D01*
X174039517Y-82653811D01*
X174151000Y-83214275D01*
X174151000Y-83785725D01*
X174039517Y-84346189D01*
X174039516Y-84346191D01*
X173820833Y-84874139D01*
X173503354Y-85349280D01*
X173099280Y-85753354D01*
X172624139Y-86070833D01*
X172624138Y-86070834D01*
X172624137Y-86070834D01*
X172096189Y-86289517D01*
X171535725Y-86401000D01*
X170964275Y-86401000D01*
X170403811Y-86289517D01*
X169875863Y-86070834D01*
X169875862Y-86070834D01*
X169875861Y-86070833D01*
X169400720Y-85753354D01*
X168996646Y-85349280D01*
X168679167Y-84874139D01*
X168460484Y-84346191D01*
X168460483Y-84346189D01*
X168349000Y-83785725D01*
X168349000Y-83214275D01*
X168460483Y-82653811D01*
X168679166Y-82125863D01*
X168679167Y-82125861D01*
X168996646Y-81650720D01*
X169400720Y-81246646D01*
X169875861Y-80929167D01*
X170403809Y-80710484D01*
X170403808Y-80710484D01*
X170403811Y-80710483D01*
X170964275Y-80599000D01*
X171535725Y-80599000D01*
X172096189Y-80710483D01*
X172096189Y-80710483D01*
G37*
G36*
X141096189Y-80710483D02*
G01*
X141096192Y-80710484D01*
X141096191Y-80710484D01*
X141624139Y-80929167D01*
X142099280Y-81246646D01*
X142503354Y-81650720D01*
X142820833Y-82125861D01*
X142820834Y-82125863D01*
X143039517Y-82653811D01*
X143151000Y-83214275D01*
X143151000Y-83785725D01*
X143039517Y-84346189D01*
X143039516Y-84346191D01*
X142820833Y-84874139D01*
X142503354Y-85349280D01*
X142099280Y-85753354D01*
X141624139Y-86070833D01*
X141624138Y-86070834D01*
X141624137Y-86070834D01*
X141096189Y-86289517D01*
X140535725Y-86401000D01*
X139964275Y-86401000D01*
X139403811Y-86289517D01*
X138875863Y-86070834D01*
X138875862Y-86070834D01*
X138875861Y-86070833D01*
X138400720Y-85753354D01*
X137996646Y-85349280D01*
X137679167Y-84874139D01*
X137460484Y-84346191D01*
X137460483Y-84346189D01*
X137349000Y-83785725D01*
X137349000Y-83214275D01*
X137460483Y-82653811D01*
X137679166Y-82125863D01*
X137679167Y-82125861D01*
X137996646Y-81650720D01*
X138400720Y-81246646D01*
X138875861Y-80929167D01*
X139403809Y-80710484D01*
X139403808Y-80710484D01*
X139403811Y-80710483D01*
X139964275Y-80599000D01*
X140535725Y-80599000D01*
X141096189Y-80710483D01*
X141096189Y-80710483D01*
G37*
M02*
